<svg width="80" height="80" viewBox="0 0 80 80" fill="none" xmlns="http://www.w3.org/2000/svg">
<path fill-rule="evenodd" clip-rule="evenodd" d="M80 40C80 62.0914 62.0914 80 40 80C17.9086 80 0 62.0914 0 40C0 17.9086 17.9086 0 40 0C62.0914 0 80 17.9086 80 40ZM24.4447 33.0448C21.8047 33.0448 19.5047 33.4248 17.5447 34.1848C15.5847 34.9048 14.0847 35.9048 13.0447 37.1848C11.9647 38.4648 11.4247 39.8848 11.4247 41.4448C11.4247 42.2048 11.5247 42.8848 11.7247 43.4848C12.0047 44.4048 12.5047 45.2248 13.2247 45.9448C13.9447 46.6248 15.0447 47.3248 16.5247 48.0448C18.0047 48.7648 20.0647 49.5848 22.7047 50.5048C27.0247 52.0248 30.1647 53.4648 32.1247 54.8248C34.0447 56.1448 35.2247 57.5448 35.6647 59.0248C35.9047 59.8648 36.0247 60.6248 36.0247 61.3048C36.0247 62.4248 35.7447 63.3448 35.1847 64.0648C34.5847 64.7848 33.7847 65.3048 32.7847 65.6248C32.9047 64.9048 32.9647 64.2248 32.9647 63.5848C32.9647 62.6648 32.8247 61.6848 32.5447 60.6448C31.7447 58.2048 30.1647 56.3048 27.8047 54.9448C25.4447 53.5848 22.9447 52.9048 20.3047 52.9048C17.4647 52.9048 15.2647 53.6048 13.7047 55.0048C12.1047 56.3648 11.3047 58.0648 11.3047 60.1048C11.3047 61.0248 11.4447 61.8848 11.7247 62.6848C12.6047 65.4848 14.7647 67.6248 18.2047 69.1048C21.6047 70.5848 25.3247 71.3248 29.3647 71.3248C32.8447 71.3248 35.9847 70.7248 38.7847 69.5248C41.5847 68.3248 43.7847 66.6248 45.3847 64.4248C46.9447 62.2248 47.7247 59.7048 47.7247 56.8648C47.7247 51.8248 44.7247 47.5848 38.7247 44.1448C36.8847 43.1048 35.6047 42.3448 34.8847 41.8648C34.1647 41.3848 33.7247 41.0248 33.5647 40.7848C33.4047 40.5448 33.3247 40.2248 33.3247 39.8248C33.3247 39.4648 33.4247 39.1648 33.6247 38.9248C33.7847 38.6848 34.0447 38.4048 34.4047 38.0848C34.7647 37.7648 35.0247 37.5048 35.1847 37.3048C35.3047 37.0648 35.3047 36.8048 35.1847 36.5248C34.9047 35.6048 33.6847 34.8048 31.5247 34.1248C29.3647 33.4048 27.0047 33.0448 24.4447 33.0448ZM27.9847 63.9448C28.2247 64.6648 28.3047 65.3648 28.2247 66.0448C26.7847 66.0448 25.5647 65.8448 24.5647 65.4448C23.5647 65.0048 23.0647 64.2848 23.0647 63.2848C23.0647 62.8048 23.2447 62.4048 23.6047 62.0848C23.9247 61.7248 24.3647 61.5448 24.9247 61.5448C25.6047 61.5448 26.2247 61.7648 26.7847 62.2048C27.3447 62.6048 27.7447 63.1848 27.9847 63.9448ZM54.3565 45.2905C52.2774 45.7162 49.9357 45.7133 47.3311 45.282C44.8055 44.8637 42.5461 44.1247 40.5529 43.065C38.552 42.0447 37.5015 41.0601 37.4012 40.1113C37.3364 39.8169 37.3862 39.5617 37.5504 39.3457C37.7466 39.1756 38.0528 38.9629 38.4692 38.7076C38.8856 38.4523 39.1956 38.22 39.3994 38.0106C39.6426 37.8077 39.7987 37.5296 39.8675 37.1762C39.9441 36.7836 39.9264 36.4564 39.8144 36.1947C39.7025 35.933 39.3373 35.5078 38.7188 34.919C38.1003 34.3302 36.9829 33.3751 35.3666 32.0536C30.1053 27.6968 27.9567 23.0449 28.9209 18.098C29.4642 15.3104 30.7158 12.9644 32.6757 11.0599C34.6751 9.16202 37.1708 7.8529 40.1627 7.13258C43.1546 6.41226 46.3672 6.33642 49.8004 6.90505C53.7861 7.56518 57.3146 8.89936 60.3857 10.9076C63.4964 12.9223 65.218 15.3758 65.5505 18.2678C65.6737 19.0988 65.6473 19.9658 65.4713 20.8688C65.081 22.8711 63.9665 24.409 62.1279 25.4825C60.321 26.6017 58.0167 26.9293 55.2148 26.4652C52.6103 26.0339 50.274 24.9579 48.2059 23.2374C46.1378 21.5169 44.9425 19.3938 44.62 16.8682C44.5428 15.8016 44.5921 14.8169 44.7681 13.9139C44.8906 13.2857 45.0798 12.628 45.336 11.9409C44.2882 12.0916 43.3995 12.4713 42.6698 13.08C41.9796 13.6952 41.5273 14.5524 41.3131 15.6517C41.183 16.3192 41.156 17.0848 41.2321 17.9485C41.383 19.473 42.2793 21.04 43.921 22.6493C45.5945 24.3045 48.4168 26.2309 52.388 28.4288C54.8165 29.7631 56.6919 30.9046 58.0143 31.8531C59.3367 32.8017 60.288 33.6685 60.8682 34.4536C61.4408 35.2779 61.7772 36.1645 61.8774 37.1132C61.9599 37.7348 61.9285 38.4186 61.7831 39.1646C61.4847 40.6958 60.6803 42.0013 59.3699 43.0812C58.099 44.1676 56.4279 44.904 54.3565 45.2905ZM49.915 12.2738C49.706 12.9282 49.651 13.6283 49.7501 14.3742C49.8414 15.1594 50.1251 15.7941 50.6011 16.2782C51.0694 16.8016 51.6389 17.1188 52.3098 17.2299C52.8623 17.3214 53.3308 17.2166 53.7154 16.9156C54.1317 16.6603 54.3858 16.2971 54.4777 15.826C54.669 14.8444 54.3134 14.056 53.411 13.4608C52.501 12.9048 51.3357 12.5091 49.915 12.2738Z" fill="url(#paint0_linear_255_96)"/>
<defs>
<linearGradient id="paint0_linear_255_96" x1="50" y1="1" x2="50" y2="101.231" gradientUnits="userSpaceOnUse">
<stop stop-color="#F97316"/>
<stop offset="1" stop-color="#F44336"/>
</linearGradient>
</defs>
</svg>
